Coordinates
version=1
nRows=5
nColumns=40
inDegrees=yes

Units are S.I. units (second, meters, Newtons, ...)
If the header above contains a line with 'inDegrees', this indicates whether rotational values are in degrees (yes) or radians (no).

endheader
time	pelvis_tilt	pelvis_list	pelvis_rotation	pelvis_tx	pelvis_ty	pelvis_tz	hip_flexion_r	hip_adduction_r	hip_rotation_r	knee_angle_r	knee_angle_r_beta	ankle_angle_r	subtalar_angle_r	mtp_angle_r	hip_flexion_l	hip_adduction_l	hip_rotation_l	knee_angle_l	knee_angle_l_beta	ankle_angle_l	subtalar_angle_l	mtp_angle_l	lumbar_extension	lumbar_bending	lumbar_rotation	arm_flex_r	arm_add_r	arm_rot_r	elbow_flex_r	pro_sup_r	wrist_flex_r	wrist_dev_r	arm_flex_l	arm_add_l	arm_rot_l	elbow_flex_l	pro_sup_l	wrist_flex_l	wrist_dev_l
      0.41000000	     -8.34693604	     -4.85808148	     -2.49838565	     -0.61662743	      0.95113980	      0.30981285	      8.97521750	      9.52492737	      1.64903125	      7.90818291	      0.13802383	      6.20035595	      0.00000000	      0.00000000	     26.19872477	     -9.94911841	     -7.32471334	     45.50598218	      0.79422922	      6.02366555	      0.00000000	      0.00000000	     -3.17939428	      1.06331257	      8.95068277	     -6.73934044	     -6.73981528	     -8.54021870	     51.17174139	     89.19394628	      7.57024226	     19.34173773	     -9.49599789	     -3.43239713	     -2.15544237	     31.29663783	     89.42937380	    -23.48704726	      1.40199879
      0.42000000	     -8.37995990	     -4.57824385	     -2.68965007	     -0.60833495	      0.95087107	      0.31028452	      8.24456437	      9.27354330	      2.07805018	      7.47726581	      0.13050291	      6.55070739	      0.00000000	      0.00000000	     26.75981714	     -9.46192304	     -7.38795653	     43.15932971	      0.75327241	      6.11290554	      0.00000000	      0.00000000	     -3.15366671	      0.74233473	      9.22928439	     -6.50773632	     -6.80493899	     -8.57162445	     51.45171995	     89.18637066	      7.49578140	     19.19044151	     -9.97156967	     -3.27716340	     -2.49794772	     30.87839307	     89.42795978	    -23.60185091	      1.34356258
      0.43000000	     -8.54524933	     -4.80253365	     -2.81227468	     -0.60030477	      0.95011304	      0.31075775	      7.77195858	      9.54603965	      2.21211283	      7.29597469	      0.12733878	      6.86749503	      0.00000000	      0.00000000	     27.53201436	     -9.47065575	     -7.14535136	     40.84625680	      0.71290167	      6.04789980	      0.00000000	      0.00000000	     -3.07128769	      0.96174905	      9.43891900	     -6.32340459	     -6.94311927	     -8.51084486	     51.93767119	     89.17637058	      7.50414330	     19.11106905	    -10.48234158	     -3.13179671	     -2.64155614	     30.68749117	     89.41717606	    -23.65038426	      1.36937763
      0.44000000	     -8.64406286	     -4.57368590	     -2.97301396	     -0.59206593	      0.94948509	      0.31097635	      7.16085612	      9.32307828	      2.55241360	      6.95176242	      0.12133114	      7.26960721	      0.00000000	      0.00000000	     28.02063040	     -8.96124852	     -6.92150199	     38.15427147	      0.66591766	      6.02203556	      0.00000000	      0.00000000	     -2.94705317	      0.70880026	      9.73058907	     -6.11497532	     -7.04755858	     -8.49186628	     52.15474284	     89.16432813	      7.47969186	     19.01117349	    -10.87210249	     -2.94694514	     -3.05463217	     30.26007714	     89.42003213	    -23.66834611	      1.43750560
      0.45000000	     -8.63176952	     -4.37210610	     -3.18140776	     -0.58387127	      0.94890788	      0.31137746	      6.52284000	      9.13488800	      2.88262686	      6.81584935	      0.11895901	      7.77420734	      0.00000000	      0.00000000	     28.30329482	     -8.56911906	     -6.94373552	     35.30934762	      0.61626437	      5.74509427	      0.00000000	      0.00000000	     -3.01147545	      0.48065626	      9.90527928	     -5.81844035	     -7.12981525	     -8.34686395	     52.44282932	     89.15644035	      7.47003686	     18.83253161	    -11.36464990	     -2.80393019	     -3.36310241	     30.11050922	     89.41457132	    -23.54314392	      1.50601942
